<svg xmlns="http://www.w3.org/2000/svg" version="1.1" xmlns:xlink="http://www.w3.org/1999/xlink" xmlns:svgjs="http://svgjs.dev/svgjs" width="2000" height="1500" viewBox="0 0 2000 1500"><rect width="2000" height="1500" fill="#7d4e38"></rect><g transform="matrix(0.4657661853749418,0,0,0.4657661853749418,533.033471058065,248.38709677419354)"><svg viewBox="0 0 231 248" data-background-color="#7d4e38" preserveAspectRatio="xMidYMid meet" height="2147" width="2000" xmlns="http://www.w3.org/2000/svg" xmlns:xlink="http://www.w3.org/1999/xlink"><g id="tight-bounds" transform="matrix(1,0,0,1,0.29765939722761914,0.4000000000000057)"><svg viewBox="0 0 230.40468120554473 247.2" height="247.2" width="230.40468120554473"><g><svg viewBox="0 0 395.52 424.3513781422557" height="247.2" width="230.40468120554473"><g transform="matrix(1,0,0,1,0,237.61233346570572)"><svg viewBox="0 0 395.52 186.73904467655" height="186.73904467655" width="395.52"><g id="textblocktransform"><svg viewBox="0 0 395.52 186.73904467655" height="186.73904467655" width="395.52" id="textblock"><g><svg viewBox="0 0 395.52 139.92914398812468" height="139.92914398812468" width="395.52"><g transform="matrix(1,0,0,1,0,0)"><svg width="395.52" viewBox="1.95 -35.35 101.03999999999999 35.75" height="139.92914398812468" data-palette-color="#ffffff"><path d="M24.2-9.8L24.2-9.8Q24.2-5.25 20.85-2.43 17.5 0.4 11.95 0.4L11.95 0.4Q6 0.4 2.25-1.7L2.25-1.7 2.25-9.45Q6.8-6.15 11.95-6.15L11.95-6.15Q13.7-6.15 14.85-7.08 16-8 16-9.5L16-9.5Q16-10 15.85-10.45 15.7-10.9 15.3-11.3 14.9-11.7 14.53-11.98 14.15-12.25 13.43-12.63 12.7-13 12.2-13.25 11.7-13.5 10.73-13.95 9.75-14.4 9.15-14.65L9.15-14.65Q5.9-16.15 3.93-18.35 1.95-20.55 1.95-24.2L1.95-24.2Q1.95-28.55 5.15-31.23 8.35-33.9 14-33.9L14-33.9Q19.05-33.9 22.7-32.2L22.7-32.2 22.7-25Q18.65-27.35 14.3-27.35L14.3-27.35Q12.35-27.35 11.33-26.55 10.3-25.75 10.3-24.5 10.3-23.25 11.55-22.28 12.8-21.3 15.3-20.2L15.3-20.2Q16.85-19.5 17.88-18.98 18.9-18.45 20.23-17.53 21.55-16.6 22.33-15.58 23.1-14.55 23.65-13.05 24.2-11.55 24.2-9.8ZM48.6-7.55L48.6-1.45Q46 0.25 40.65 0.25L40.65 0.25Q34.4 0.25 30.92-3.38 27.45-7 27.45-12.7L27.45-12.7Q27.45-18.75 30.82-22.18 34.2-25.6 39.15-25.6L39.15-25.6Q44.25-25.6 47.2-22.63 50.15-19.65 50.15-13.75L50.15-13.75Q50.15-12.6 49.75-9.8L49.75-9.8 34.85-9.8Q35.6-7.7 37.45-6.55 39.3-5.4 41.9-5.4L41.9-5.4Q45.75-5.4 48.6-7.55L48.6-7.55ZM39.45-20.05L39.45-20.05Q37.7-20.05 36.35-18.78 35-17.5 34.55-15L34.55-15 43.35-15 43.35-15.6Q43-20.05 39.45-20.05ZM62.9-35.35L62.9 0 55.6 0 55.6-35.35 62.9-35.35ZM76.69-35.35L76.69 0 69.39 0 69.39-35.35 76.69-35.35ZM92.24-5L92.24-5Q93.79-5 94.64-5.95 95.49-6.9 95.49-8.55L95.49-8.55 95.49-10.4 93.14-10.4Q91.29-10.4 90.29-9.6 89.29-8.8 89.29-7.55L89.29-7.55Q89.29-5 92.24-5ZM95.84 0L95.84-3.1Q94.24 0.15 89.54 0.15L89.54 0.15Q85.84 0.15 83.77-1.95 81.69-4.05 81.69-7.2L81.69-7.2Q81.69-10.85 84.37-12.88 87.04-14.9 92.29-14.9L92.29-14.9 95.49-14.9 95.49-16.65Q95.49-19.85 91.24-19.85L91.24-19.85Q87.14-19.85 83.64-17.55L83.64-17.55 83.64-24.1Q86.64-25.8 92.29-25.8L92.29-25.8Q97.69-25.8 100.34-23.48 102.99-21.15 102.99-16.25L102.99-16.25 102.99 0 95.84 0Z" opacity="1" transform="matrix(1,0,0,1,0,0)" fill="#ffffff" class="wordmark-text-0" data-fill-palette-color="primary" id="text-0"></path></svg></g></svg></g><g transform="matrix(1,0,0,1,94.92479999999999,172.9630565842652)"><svg viewBox="0 0 205.6704 13.775988092284793" height="13.775988092284793" width="205.6704"><g transform="matrix(1,0,0,1,0,0)"><svg width="205.6704" viewBox="5.35 -42.3 806.12 54" height="13.775988092284793" data-palette-color="#ffffff"><path d="M35.35-37.9L40.7-37.9 40.7 0 35.85 0 35.85-30.55 24.25-14.4 21.7-14.4 10.2-30.55 10.2 0 5.35 0 5.35-37.9 10.65-37.9 23-20.6 35.35-37.9ZM59.05-27.65Q63.45-27.65 65.75-26.18 68.05-24.7 68.8-22.23 69.55-19.75 69.55-16L69.55-16 69.55 0 64.85 0 64.85-2.75Q62.95-0.95 61.05-0.15 59.15 0.65 56.95 0.65L56.95 0.65Q54.35 0.65 52.25-0.48 50.15-1.6 48.92-3.73 47.7-5.85 47.7-8.75L47.7-8.75Q47.7-13.25 50.5-15.73 53.3-18.2 58.05-18.2L58.05-18.2Q61.8-18.2 64.8-16.55L64.8-16.55Q64.75-19 64.3-20.45 63.85-21.9 62.45-22.68 61.05-23.45 58.3-23.45L58.3-23.45 54.6-23.45 54.6-27.65 59.05-27.65ZM57.6-3.4Q59.3-3.4 61.17-4.2 63.05-5 64.85-6.6L64.85-6.6 64.85-12.9Q62.05-14.3 58.75-14.3L58.75-14.3Q56.1-14.3 54.3-13.03 52.5-11.75 52.5-8.75L52.5-8.75Q52.5-5.95 54.02-4.67 55.55-3.4 57.6-3.4L57.6-3.4ZM90.35-28.25L91.5-28.25 91.5-23.85 90.35-23.85Q86.05-23.85 82-20.4L82-20.4 82 0 77.3 0 77.3-27.65 82-27.65 82-24.55Q86.1-28.25 90.35-28.25L90.35-28.25ZM115.29 0L105.19-12.75 102.19-9.7 102.19 0 97.49 0 97.49-42.3 102.19-42.3 102.19-15.65 113.49-27.3 119.39-27.3 108.39-16 120.99 0 115.29 0ZM129.89-13.45Q129.99-8.85 132.19-6.1 134.39-3.35 139.19-3.35L139.19-3.35Q142.84-3.35 147.19-5.4L147.19-5.4 148.64-1.5Q144.09 0.85 138.79 0.85L138.79 0.85Q134.39 0.85 131.29-1 128.19-2.85 126.59-6.15 124.99-9.45 124.99-13.85L124.99-13.85Q124.99-18.5 126.67-21.78 128.34-25.05 131.19-26.75 134.04-28.45 137.59-28.45L137.59-28.45Q143.04-28.45 146.14-25.05 149.24-21.65 149.24-15.3L149.24-15.3 149.24-13.45 129.89-13.45ZM137.59-24.25Q131.39-24.25 130.19-17.4L130.19-17.4 144.29-17.4Q144.04-20.9 142.39-22.58 140.74-24.25 137.59-24.25L137.59-24.25ZM167.99-22.95L161.59-22.95 161.59-7.15Q161.59-5.15 162.21-4.42 162.84-3.7 164.54-3.7L164.54-3.7Q166.04-3.7 167.74-4.1L167.74-4.1 167.74 0.15Q165.49 0.65 163.74 0.65L163.74 0.65Q159.94 0.65 158.41-0.9 156.89-2.45 156.89-6.1L156.89-6.1 156.89-22.95 153.29-22.95 153.29-27.3 156.89-27.3 156.89-36.8 161.59-36.8 161.59-27.3 167.99-27.3 167.99-22.95ZM198.28-28.45Q203.88-28.45 207.21-24.7 210.53-20.95 210.53-13.8L210.53-13.8Q210.53-6.65 207.21-2.9 203.88 0.85 198.28 0.85L198.28 0.85Q194.23 0.85 190.28-2.5L190.28-2.5 190.28 11.7 185.58 11.7 185.58-27.65 190.28-27.65 190.28-25.05Q194.28-28.45 198.28-28.45L198.28-28.45ZM197.63-3.5Q201.58-3.5 203.63-6.13 205.68-8.75 205.68-13.8L205.68-13.8Q205.68-18.85 203.63-21.45 201.58-24.05 197.63-24.05L197.63-24.05Q193.88-24.05 190.28-20.95L190.28-20.95 190.28-6.6Q193.98-3.5 197.63-3.5L197.63-3.5ZM224.93 0.65Q221.18 0.65 219.53-0.85 217.88-2.35 217.88-5.9L217.88-5.9 217.88-42.3 222.58-42.3 222.58-7.15Q222.58-5.15 223.21-4.42 223.83-3.7 225.58-3.7L225.58-3.7Q226.98-3.7 228.08-4L228.08-4 228.08 0.3Q226.08 0.65 224.93 0.65L224.93 0.65ZM242.33-27.65Q246.73-27.65 249.03-26.18 251.33-24.7 252.08-22.23 252.83-19.75 252.83-16L252.83-16 252.83 0 248.13 0 248.13-2.75Q246.23-0.95 244.33-0.15 242.43 0.65 240.23 0.65L240.23 0.65Q237.63 0.65 235.53-0.48 233.43-1.6 232.2-3.73 230.98-5.85 230.98-8.75L230.98-8.75Q230.98-13.25 233.78-15.73 236.58-18.2 241.33-18.2L241.33-18.2Q245.08-18.2 248.08-16.55L248.08-16.55Q248.03-19 247.58-20.45 247.13-21.9 245.73-22.68 244.33-23.45 241.58-23.45L241.58-23.45 237.88-23.45 237.88-27.65 242.33-27.65ZM240.88-3.4Q242.58-3.4 244.45-4.2 246.33-5 248.13-6.6L248.13-6.6 248.13-12.9Q245.33-14.3 242.03-14.3L242.03-14.3Q239.38-14.3 237.58-13.03 235.78-11.75 235.78-8.75L235.78-8.75Q235.78-5.95 237.3-4.67 238.83-3.4 240.88-3.4L240.88-3.4ZM272.28 0.85Q265.83 0.8 262.35-3.15 258.88-7.1 258.88-13.85L258.88-13.85Q258.88-20.6 262.35-24.5 265.83-28.4 272.28-28.45L272.28-28.45Q274.53-28.45 276.15-28.13 277.78-27.8 279.63-27.05L279.63-27.05 279.63-22.5Q277.83-23.35 276.2-23.7 274.58-24.05 272.63-24.05L272.63-24.05Q267.98-24 265.88-21.28 263.78-18.55 263.78-13.9L263.78-13.9Q263.78-9.15 265.88-6.35 267.98-3.55 272.53-3.5L272.53-3.5Q276.08-3.5 280.28-5.65L280.28-5.65 281.78-1.55Q277.23 0.85 272.28 0.85L272.28 0.85ZM291.07-13.45Q291.17-8.85 293.37-6.1 295.57-3.35 300.37-3.35L300.37-3.35Q304.02-3.35 308.37-5.4L308.37-5.4 309.82-1.5Q305.27 0.85 299.97 0.85L299.97 0.85Q295.57 0.85 292.47-1 289.37-2.85 287.77-6.15 286.17-9.45 286.17-13.85L286.17-13.85Q286.17-18.5 287.85-21.78 289.52-25.05 292.37-26.75 295.22-28.45 298.77-28.45L298.77-28.45Q304.22-28.45 307.32-25.05 310.42-21.65 310.42-15.3L310.42-15.3 310.42-13.45 291.07-13.45ZM298.77-24.25Q292.57-24.25 291.37-17.4L291.37-17.4 305.47-17.4Q305.22-20.9 303.57-22.58 301.92-24.25 298.77-24.25L298.77-24.25ZM340.17-22.95L333.77-22.95 333.77-7.15Q333.77-5.15 334.39-4.42 335.02-3.7 336.72-3.7L336.72-3.7Q338.22-3.7 339.92-4.1L339.92-4.1 339.92 0.15Q337.67 0.65 335.92 0.65L335.92 0.65Q332.12 0.65 330.59-0.9 329.07-2.45 329.07-6.1L329.07-6.1 329.07-22.95 325.47-22.95 325.47-27.3 329.07-27.3 329.07-36.8 333.77-36.8 333.77-27.3 340.17-27.3 340.17-22.95ZM358.72 0.85Q354.32 0.85 351.24-1.07 348.17-3 346.62-6.33 345.07-9.65 345.07-13.8L345.07-13.8Q345.07-17.95 346.62-21.28 348.17-24.6 351.24-26.53 354.32-28.45 358.72-28.45L358.72-28.45Q363.12-28.45 366.19-26.53 369.27-24.6 370.79-21.28 372.32-17.95 372.32-13.8L372.32-13.8Q372.32-9.65 370.79-6.33 369.27-3 366.19-1.07 363.12 0.85 358.72 0.85L358.72 0.85ZM358.72-3.4Q362.87-3.4 365.14-6.3 367.42-9.2 367.42-13.8L367.42-13.8Q367.42-18.4 365.14-21.28 362.87-24.15 358.72-24.15L358.72-24.15Q354.57-24.15 352.27-21.28 349.97-18.4 349.97-13.8L349.97-13.8Q349.97-9.2 352.27-6.3 354.57-3.4 358.72-3.4L358.72-3.4ZM399.01 0.85Q395.96 0.85 393.61 0.35 391.26-0.15 388.71-1.35L388.71-1.35 388.71-6Q393.46-3.35 399.01-3.35L399.01-3.35Q401.81-3.35 403.04-4.48 404.26-5.6 404.26-7.45L404.26-7.45Q404.26-9.25 403.29-10.1 402.31-10.95 400.11-11.55L400.11-11.55 396.86-12.35Q393.36-13.2 391.36-15.05 389.36-16.9 389.36-20.5L389.36-20.5Q389.36-24.25 391.81-26.35 394.26-28.45 399.01-28.45L399.01-28.45Q401.46-28.45 403.56-27.98 405.66-27.5 407.76-26.65L407.76-26.65 407.76-22.25Q405.71-23.2 403.71-23.73 401.71-24.25 399.16-24.25L399.16-24.25Q396.51-24.25 395.34-23.23 394.16-22.2 394.16-20.65L394.16-20.65Q394.16-18.95 395.19-18.07 396.21-17.2 398.16-16.7L398.16-16.7 401.46-15.95Q403.96-15.35 405.59-14.45 407.21-13.55 408.14-11.93 409.06-10.3 409.06-7.6L409.06-7.6Q409.06-3.55 406.34-1.35 403.61 0.85 399.01 0.85L399.01 0.85ZM419.51-13.45Q419.61-8.85 421.81-6.1 424.01-3.35 428.81-3.35L428.81-3.35Q432.46-3.35 436.81-5.4L436.81-5.4 438.26-1.5Q433.71 0.85 428.41 0.85L428.41 0.85Q424.01 0.85 420.91-1 417.81-2.85 416.21-6.15 414.61-9.45 414.61-13.85L414.61-13.85Q414.61-18.5 416.28-21.78 417.96-25.05 420.81-26.75 423.66-28.45 427.21-28.45L427.21-28.45Q432.66-28.45 435.76-25.05 438.86-21.65 438.86-15.3L438.86-15.3 438.86-13.45 419.51-13.45ZM427.21-24.25Q421.01-24.25 419.81-17.4L419.81-17.4 433.91-17.4Q433.66-20.9 432.01-22.58 430.36-24.25 427.21-24.25L427.21-24.25ZM452.61 0.65Q448.86 0.65 447.21-0.85 445.56-2.35 445.56-5.9L445.56-5.9 445.56-42.3 450.26-42.3 450.26-7.15Q450.26-5.15 450.88-4.42 451.51-3.7 453.26-3.7L453.26-3.7Q454.66-3.7 455.76-4L455.76-4 455.76 0.3Q453.76 0.65 452.61 0.65L452.61 0.65ZM468.55 0.65Q464.8 0.65 463.15-0.85 461.5-2.35 461.5-5.9L461.5-5.9 461.5-42.3 466.2-42.3 466.2-7.15Q466.2-5.15 466.83-4.42 467.45-3.7 469.2-3.7L469.2-3.7Q470.6-3.7 471.7-4L471.7-4 471.7 0.3Q469.7 0.65 468.55 0.65L468.55 0.65ZM506.7-27.65L511.4-27.65 511.4 0 506.7 0 506.7-2.95Q502.6 0.6 498.25 0.6L498.25 0.6Q493.15 0.6 490.67-2.1 488.2-4.8 488.2-10.95L488.2-10.95 488.2-27.65 492.9-27.65 492.9-10.95Q492.9-7.05 494.22-5.4 495.55-3.75 498.9-3.75L498.9-3.75Q502.8-3.75 506.7-7.15L506.7-7.15 506.7-27.65ZM533.54-28.25Q538.64-28.25 541.12-25.55 543.6-22.85 543.6-16.65L543.6-16.65 543.6 0 538.89 0 538.89-16.65Q538.89-20.55 537.57-22.2 536.25-23.85 532.89-23.85L532.89-23.85Q529-23.85 525.1-20.45L525.1-20.45 525.1 0 520.39 0 520.39-27.65 525.1-27.65 525.1-24.7Q529.19-28.25 533.54-28.25L533.54-28.25ZM570.59-27.65L575.29-27.65 575.29 0 570.59 0 570.59-2.95Q566.49 0.6 562.14 0.6L562.14 0.6Q557.04 0.6 554.57-2.1 552.09-4.8 552.09-10.95L552.09-10.95 552.09-27.65 556.79-27.65 556.79-10.95Q556.79-7.05 558.12-5.4 559.44-3.75 562.79-3.75L562.79-3.75Q566.69-3.75 570.59-7.15L570.59-7.15 570.59-27.65ZM592.69 0.85Q589.64 0.85 587.29 0.35 584.94-0.15 582.39-1.35L582.39-1.35 582.39-6Q587.14-3.35 592.69-3.35L592.69-3.35Q595.49-3.35 596.71-4.48 597.94-5.6 597.94-7.45L597.94-7.45Q597.94-9.25 596.96-10.1 595.99-10.95 593.79-11.55L593.79-11.55 590.54-12.35Q587.04-13.2 585.04-15.05 583.04-16.9 583.04-20.5L583.04-20.5Q583.04-24.25 585.49-26.35 587.94-28.45 592.69-28.45L592.69-28.45Q595.14-28.45 597.24-27.98 599.34-27.5 601.44-26.65L601.44-26.65 601.44-22.25Q599.39-23.2 597.39-23.73 595.39-24.25 592.84-24.25L592.84-24.25Q590.19-24.25 589.01-23.23 587.84-22.2 587.84-20.65L587.84-20.65Q587.84-18.95 588.87-18.07 589.89-17.2 591.84-16.7L591.84-16.7 595.14-15.95Q597.64-15.35 599.26-14.45 600.89-13.55 601.81-11.93 602.74-10.3 602.74-7.6L602.74-7.6Q602.74-3.55 600.01-1.35 597.29 0.85 592.69 0.85L592.69 0.85ZM613.19-13.45Q613.29-8.85 615.49-6.1 617.69-3.35 622.49-3.35L622.49-3.35Q626.14-3.35 630.49-5.4L630.49-5.4 631.94-1.5Q627.39 0.85 622.09 0.85L622.09 0.85Q617.69 0.85 614.59-1 611.49-2.85 609.89-6.15 608.29-9.45 608.29-13.85L608.29-13.85Q608.29-18.5 609.96-21.78 611.64-25.05 614.49-26.75 617.34-28.45 620.89-28.45L620.89-28.45Q626.34-28.45 629.44-25.05 632.54-21.65 632.54-15.3L632.54-15.3 632.54-13.45 613.19-13.45ZM620.89-24.25Q614.69-24.25 613.49-17.4L613.49-17.4 627.59-17.4Q627.34-20.9 625.69-22.58 624.04-24.25 620.89-24.25L620.89-24.25ZM657.83-42.3L662.53-42.3 662.53 0 657.83 0 657.83-2.5Q653.88 0.85 649.83 0.85L649.83 0.85Q644.23 0.85 640.88-2.9 637.53-6.65 637.53-13.8L637.53-13.8Q637.53-20.95 640.88-24.7 644.23-28.45 649.83-28.45L649.83-28.45Q653.83-28.45 657.83-25.05L657.83-25.05 657.83-42.3ZM650.43-3.5Q654.03-3.5 657.83-6.6L657.83-6.6 657.83-20.95Q654.13-24.05 650.43-24.05L650.43-24.05Q646.48-24.05 644.46-21.45 642.43-18.85 642.43-13.8L642.43-13.8Q642.43-8.75 644.46-6.13 646.48-3.5 650.43-3.5L650.43-3.5ZM682.53-32.85L682.53-40.4 687.23-40.4 687.23-32.85 682.53-32.85ZM682.53 0L682.53-27.65 687.23-27.65 687.23 0 682.53 0ZM708.28-22.95L701.88-22.95 701.88-7.15Q701.88-5.15 702.5-4.42 703.13-3.7 704.83-3.7L704.83-3.7Q706.33-3.7 708.03-4.1L708.03-4.1 708.03 0.15Q705.78 0.65 704.03 0.65L704.03 0.65Q700.23 0.65 698.7-0.9 697.18-2.45 697.18-6.1L697.18-6.1 697.18-22.95 693.58-22.95 693.58-27.3 697.18-27.3 697.18-36.8 701.88-36.8 701.88-27.3 708.28-27.3 708.28-22.95ZM718.07-13.45Q718.17-8.85 720.37-6.1 722.57-3.35 727.37-3.35L727.37-3.35Q731.02-3.35 735.37-5.4L735.37-5.4 736.82-1.5Q732.27 0.85 726.97 0.85L726.97 0.85Q722.57 0.85 719.47-1 716.37-2.85 714.77-6.15 713.17-9.45 713.17-13.85L713.17-13.85Q713.17-18.5 714.85-21.78 716.52-25.05 719.37-26.75 722.22-28.45 725.77-28.45L725.77-28.45Q731.22-28.45 734.32-25.05 737.42-21.65 737.42-15.3L737.42-15.3 737.42-13.45 718.07-13.45ZM725.77-24.25Q719.57-24.25 718.37-17.4L718.37-17.4 732.47-17.4Q732.22-20.9 730.57-22.58 728.92-24.25 725.77-24.25L725.77-24.25ZM775.22-28.25Q780.27-28.25 782.7-25.55 785.12-22.85 785.12-16.65L785.12-16.65 785.12 0 780.42 0 780.42-16.65Q780.42-20.6 779.15-22.23 777.87-23.85 774.57-23.85L774.57-23.85Q770.67-23.85 766.77-20.1L766.77-20.1Q766.97-18.7 766.97-16.65L766.97-16.65 766.97 0 762.27 0 762.27-16.65Q762.27-20.6 761-22.23 759.72-23.85 756.42-23.85L756.42-23.85Q752.62-23.85 748.82-20.45L748.82-20.45 748.82 0 744.12 0 744.12-27.65 748.82-27.65 748.82-24.7Q752.87-28.25 757.07-28.25L757.07-28.25Q760.42-28.25 762.57-27.13 764.72-26 765.82-23.55L765.82-23.55Q770.37-28.25 775.22-28.25L775.22-28.25ZM801.42 0.85Q798.37 0.85 796.02 0.35 793.67-0.15 791.12-1.35L791.12-1.35 791.12-6Q795.87-3.35 801.42-3.35L801.42-3.35Q804.22-3.35 805.44-4.48 806.67-5.6 806.67-7.45L806.67-7.45Q806.67-9.25 805.69-10.1 804.72-10.95 802.52-11.55L802.52-11.55 799.27-12.35Q795.77-13.2 793.77-15.05 791.77-16.9 791.77-20.5L791.77-20.5Q791.77-24.25 794.22-26.35 796.67-28.45 801.42-28.45L801.42-28.45Q803.87-28.45 805.97-27.98 808.07-27.5 810.17-26.65L810.17-26.65 810.17-22.25Q808.12-23.2 806.12-23.73 804.12-24.25 801.57-24.25L801.57-24.25Q798.92-24.25 797.74-23.23 796.57-22.2 796.57-20.65L796.57-20.65Q796.57-18.95 797.59-18.07 798.62-17.2 800.57-16.7L800.57-16.7 803.87-15.95Q806.37-15.35 807.99-14.45 809.62-13.55 810.54-11.93 811.47-10.3 811.47-7.6L811.47-7.6Q811.47-3.55 808.74-1.35 806.02 0.85 801.42 0.85L801.42 0.85Z" opacity="1" transform="matrix(1,0,0,1,0,0)" fill="#ffffff" class="slogan-text-1" data-fill-palette-color="secondary" id="text-1"></path></svg></g></svg></g></svg></g></svg></g><g transform="matrix(1,0,0,1,81.65510400000001,0)"><svg viewBox="0 0 232.20979199999996 204.57842086956518" height="204.57842086956518" width="232.20979199999996"><g><svg xmlns="http://www.w3.org/2000/svg" xmlns:xlink="http://www.w3.org/1999/xlink" version="1.1" x="0" y="0" viewBox="6.3 11.5 87.4 77" style="enable-background:new 0 0 100 100;" xml:space="preserve" height="204.57842086956518" width="232.20979199999996" class="icon-icon-0" data-fill-palette-color="accent" id="icon-0"><path d="M72.3 12.3L71.9 11.5H28.2L6.3 50 28.1 88.5H71.8L93.7 50zM33.3 25.3L9.9 47.7 28.5 14.9zM70.7 14.8L77.1 50.5 36.9 25.8zM35.5 27.3L76.5 52.5 35.5 75.8zM77 54.5L69.8 85.3 37.2 77.2zM33.5 75L9.9 50.5 33.5 27.8zM33.2 77.6L28.6 85.3 11.5 55.1zM35 78.6L66.4 86.5H30.2zM79.3 53.3L90.9 50.8 72.1 84zM90.7 48.9L79.3 51.4 73.4 18.3zM35 24.3L30 13.5H68.2z" fill="#b1efcd" data-fill-palette-color="accent"></path></svg></g></svg></g><g></g></svg></g><defs></defs></svg><rect width="230.40468120554473" height="247.2" fill="none" stroke="none" visibility="hidden"></rect></g></svg></g></svg>